<svg version="1.2" xmlns="http://www.w3.org/2000/svg" viewBox="0 0 864 864" width="864" height="864">
	<title>01573 Dandelion Wish Love Hearts-svg</title>
	<style>
		.s0 { fill: #000000 } 
	</style>
	<g id="Layer">
		<g id="Layer">
			<g id="Layer">
				<path id="Layer" class="s0" d="m530.4 238.4c-1.9-1.9-2.6-4.6-2.1-7.2l-29.6-15c-12.1 4.3-26.3 11.1-41.4 21.6-1.2 1.7-3.3 3.7-5.9 5.5-5.1 3.4-10.1 4.7-11.4 2.8-1.2-1.8 1.9-6 6.9-9.4 2.8-1.9 5.7-3.2 7.9-3.5 15.2-10.5 29.3-17.4 41.6-21.8l23.1-29.4q-0.2-0.4-0.4-0.8c-1.9-4-0.3-8.8 3.7-10.7 4-1.8 8.7-0.1 10.6 4 1.9 4 0.2 8.8-3.7 10.7-2 0.9-4.2 0.9-6.2 0.2l-18.1 23c15.1-4.5 26.2-5.2 30.8-5.3 0.4-2.3 1.7-4.3 3.8-5.3 3.8-1.7 8.4 0.3 10.4 4.6 2.1 4.4 0.7 9.3-3 11-3.7 1.8-8.4-0.3-10.4-4.6q-0.1-0.2-0.2-0.4c-3.8 0-15.2 0.6-31.1 5.5l25.2 12.8c3.3-3.1 8.3-3.1 11.3-0.1 3.1 3.1 3 8.3-0.3 11.5-3.2 3.3-8.4 3.4-11.5 0.3z"/>
				<path id="Layer" class="s0" d="m820.4 219c-0.5-1.9 0.1-3.9 1.4-5.2l-12.8-20.2c-9.1-1.7-20.3-2.7-33.5-1.8-1.4 0.7-3.4 1.1-5.7 1.3-4.3 0.2-7.9-0.9-8-2.4-0.1-1.6 3.3-3.1 7.7-3.4 2.4-0.1 4.6 0.2 6.1 0.7 13.3-0.9 24.5 0.1 33.7 1.8l25-9.7q0-0.3 0.1-0.6c0.3-3.2 3-5.6 6.2-5.3 3.1 0.3 5.4 3.2 5.1 6.4-0.3 3.1-3.1 5.5-6.2 5.2-1.6-0.2-3-1-3.9-2.1l-19.6 7.6c10.9 2.7 18 6.3 20.9 8 1.1-1.3 2.7-2.1 4.4-1.9 2.9 0.3 5 3.3 4.7 6.7-0.4 3.4-3 5.9-5.9 5.6-3-0.3-5.1-3.2-4.7-6.6q0-0.2 0-0.3c-2.4-1.4-9.6-5.2-21.2-8l10.8 17.1c3.2-0.7 6.3 1.1 7 4.1 0.8 3-1.1 6.2-4.3 7-3.3 0.8-6.5-1-7.3-4z"/>
				<path id="Layer" class="s0" d="m500.7 349.1c0.4-2.5 1.9-4.5 4-5.5l-5.6-29.6c-9.9-6.3-22.7-12.7-38.6-17.7-1.9 0.1-4.5-0.3-7.3-1.2-5.2-1.7-9-4.6-8.3-6.5 0.6-1.9 5.3-2.1 10.6-0.4 2.9 1 5.4 2.4 6.9 3.7 16 5 28.8 11.4 38.8 17.7l33.9 0.2q0.2-0.3 0.4-0.7c1.8-3.6 6.1-5.1 9.7-3.3 3.5 1.8 4.9 6.2 3.1 9.8-1.9 3.6-6.2 5.1-9.8 3.3-1.8-0.9-3-2.5-3.5-4.3l-26.6-0.2c11.6 8.3 18.3 15.9 20.9 19.2 1.9-1.1 4.1-1.2 6-0.2 3.3 1.6 4.4 6.1 2.4 10-2 3.9-6.2 5.6-9.6 3.9-3.3-1.7-4.4-6.2-2.4-10q0.1-0.2 0.2-0.3c-2.2-2.8-9-10.6-21.3-19.3l4.9 25.2c4 0.6 6.8 4.2 6.3 8.1-0.5 3.9-4.3 6.7-8.4 6.2-4.2-0.5-7.1-4.2-6.7-8.1z"/>
				<path id="Layer" class="s0" d="m731.8 215.3c0 2.2-1.6 4-3.8 4.6 1.3 4.9-1.9 12.8-5.4 19.3 5.2-4.4 8.8-8 10.9-10.2q0-0.1 0-0.1c0-2.6 2.1-4.6 4.6-4.6 2.6 0 4.6 2.2 4.5 4.8 0 2.5-2.1 4.6-4.6 4.6-1.1-0.1-2-0.4-2.8-1-3.1 3.2-8.5 8.4-16.1 14.4 4.2 0.5 11.4 1.6 16.6 4.2 1.1-1.5 2.9-2.5 4.9-2.4 3.3 0 5.9 2.8 5.8 6.1 0 3.4-2.7 6.1-6 6-3.3 0-5.8-2.7-5.9-6-6.8-3.7-19-4.4-19.1-4.5v-0.6c-3.3 2.4-6.8 4.8-10.8 7.3-20.1 12.8-53.3 28-96.8 28.3v-3.8c42.5-0.3 74.9-15.2 94.6-27.6 4.4-2.8 8.4-5.5 12-8.2 5.2-8.2 11.8-20.9 9.8-25.4l1-0.5c-2.6-0.4-4.5-2.5-4.5-4.9 0-2.7 2.6-4.9 5.6-4.8 3.1 0 5.6 2.3 5.5 5z"/>
				<path id="Layer" class="s0" d="m790.6 117.5c-1.6-0.6-2.8-2-3.1-3.7l-21.4-0.9c-6 5.8-12.5 13.6-18.6 23.8-0.3 1.4-1 3.1-2 4.8-2.1 3.4-4.7 5.5-5.9 4.7-1.2-0.7-0.6-4 1.5-7.4 1.1-1.8 2.5-3.3 3.6-4.1 6.2-10.3 12.7-18.1 18.7-24l5.7-23.4q-0.2-0.2-0.5-0.4c-2.2-1.8-2.5-5.1-0.6-7.3 1.8-2.1 5.1-2.3 7.3-0.5 2.2 1.9 2.4 5.1 0.6 7.3-0.9 1.1-2.2 1.7-3.5 1.8l-4.5 18.3c7.7-6.6 14-10 16.7-11.3-0.4-1.5-0.2-3 0.8-4.2 1.7-2 5-2 7.4 0 2.3 2 2.8 5.2 1.1 7.3-1.7 2-5 2-7.3 0q-0.1-0.1-0.2-0.2c-2.3 1.1-8.8 4.5-16.8 11.6l18.2 0.8c1.1-2.7 4-4.1 6.6-3.1 2.7 1 4 4.1 2.9 6.9-1 2.7-4 4.2-6.7 3.2z"/>
			</g>
			<g id="Layer">
				<path id="Layer" class="s0" d="m724.5 135.8c-6.7 11.7-14.4 22.8-23.1 33.1-1.4 1.7-3.7 1.1-4.9-0.4-0.2-0.1-17.2-21.7-23.6-32-4.7-7.6-13.6-18.8-10.9-28.5 2-7 9.6-10.4 16.4-10.1 9.2 0.5 15.6 7.4 20.7 14.4q0.8 0.7 1.5 1.5c4.3-8.8 8.7-18.6 18.8-20.9 8-1.8 16.2 2.7 17.1 11.2 1.3 10.7-7 22.9-12 31.7z"/>
				<path id="Layer" class="s0" d="m382.4 282.8c-4.1 7.2-9 14.1-14.4 20.5-0.8 1.1-2.3 0.7-3-0.2-0.1-0.1-10.8-13.5-14.7-19.9-3-4.8-8.5-11.7-6.8-17.8 1.3-4.4 6-6.5 10.2-6.3 5.7 0.3 9.7 4.6 12.9 9q0.5 0.5 1 0.9c2.6-5.4 5.3-11.6 11.6-13 5-1.1 10.1 1.7 10.7 7 0.8 6.7-4.4 14.2-7.5 19.8z"/>
				<path id="Layer" class="s0" d="m824 315.4c-8.4 15-18.3 29-29.4 42.2-1.8 2.1-4.7 1.3-6.3-0.5-0.1-0.2-21.9-27.7-30-40.8-6.1-9.8-17.4-24-13.9-36.4 2.5-8.9 12.2-13.2 20.9-12.8 11.7 0.5 19.8 9.4 26.4 18.3q1 0.9 1.9 1.9c5.5-11.2 11.1-23.7 24-26.6 10.1-2.3 20.6 3.4 21.8 14.2 1.7 13.7-9 29.2-15.4 40.5z"/>
				<path id="Layer" class="s0" d="m623.9 230.4c-5.6 9.9-12.2 19.2-19.5 27.9-1.2 1.5-3.1 1-4.2-0.3-0.1-0.1-14.5-18.3-19.9-27-4-6.5-11.5-15.9-9.2-24.1 1.7-6 8.1-8.8 13.9-8.6 7.7 0.4 13.1 6.3 17.5 12.2q0.6 0.6 1.3 1.3c3.6-7.4 7.3-15.8 15.8-17.7 6.8-1.5 13.7 2.3 14.5 9.4 1.1 9.1-5.9 19.4-10.2 26.9z"/>
				<path id="Layer" class="s0" d="m449.9 348.1c-5.3 9.5-11.6 18.4-18.6 26.7-1.1 1.4-3 0.9-4-0.3-0.1-0.1-13.9-17.5-19-25.8-3.8-6.2-11-15.2-8.8-23 1.6-5.7 7.7-8.4 13.2-8.2 7.5 0.4 12.6 6 16.8 11.6q0.6 0.6 1.2 1.2c3.4-7 7-15 15.1-16.8 6.5-1.5 13.1 2.2 13.9 9 1 8.7-5.7 18.5-9.8 25.6z"/>
			</g>
			<path id="Layer" fill-rule="evenodd" class="s0" d="m464 193c-2.2 3.7-6.5 5.1-9.8 3.2-2.2-1.4-3.3-4-3-6.7l-0.7-1.3c-3.9-5.6-23.5-7.1-37-6.9-5.7 2.2-11.8 4.9-18.2 8-6.6 3.3-13.7 7.1-21.3 11.8q0.4 0.1 0.7 0.2c4.1 1.6 6.1 6.3 4.5 10.6-1.6 4.3-6.2 6.6-10.4 5.1-2.5-1-4.3-3.2-4.8-5.7l-4.8-0.2c-17.3 12.5-35.6 29.1-52.1 51 6.2 8.5 9.9 18.6 9.9 29.5 0 14.5-6.5 27.7-17.1 37.7q0 0 0 0.1c14.9 11 26 22.2 34.2 32.3l35.2 12.4q0.3-0.4 0.6-0.7c3.2-3.1 8.3-3.1 11.3 0 3.1 3.2 3 8.2-0.2 11.3-3.2 3.1-8.3 3.1-11.3 0-1.6-1.6-2.3-3.7-2.2-5.7l-27.7-9.7c9.1 12.8 13.4 23 15 27.4 2.3-0.4 4.6 0.2 6.3 1.9 2.8 3 2.4 8-1.1 11.3-3.4 3.4-8.5 3.7-11.3 0.7-2.9-2.9-2.4-8 1-11.3q0.2-0.2 0.3-0.3c-1.3-3.6-5.5-14.2-15.3-27.6l-3.9 27.9c3.7 2 5.4 6.3 4 10.1 2.9 6.3 5.4 12.4 7.5 18 2.2 6 4.6 10.9 6.1 16.3 0.2 0.1 14.2 9.5 24.8 11.1 2.8-3.5 7.8-4.3 11.4-1.6 3.7 2.6 4.4 7.9 1.6 11.6-2.7 3.7-7.9 4.6-11.5 1.9-2.3-1.7-3.4-4.3-3.3-6.9-7.9-1.5-16.7-6.2-21.8-9.2 3.4 13 5 23.2 5.7 29.3 1.3 0 2.6 0.4 3.8 1.2 2.8 2.1 3.4 6.1 1.2 9-2.1 2.8-6.1 3.5-8.9 1.4-2.8-2.1-3.3-6.1-1.2-8.9q0-0.1 0-0.1c-0.4-4.1-1.3-11.2-3.2-20.3-1.7 10-4.8 21.4-10.4 25.7 1.7 2.3 2.1 5.2 0.8 7.5 7.6 30.5 13 62.3 16 94.9 6.1 64.7 3.1 133-9 203.2l-10.3-1.8c21.3-123.9 10.6-223.3-7.1-294.6q-0.1 0-0.2-0.1c-3.3-2.4-4.3-6.7-2.4-9.7-4-15-8.3-28.6-12.6-40.9-4.1-11.5-8.3-22.2-12.5-32.1 2.4 15.5 1.7 26.5 1.1 31.1 2.3 0.7 4.1 2.3 4.8 4.6 1.2 3.9-1.5 8.2-6 9.6-4.6 1.5-9.2-0.5-10.5-4.4-1.2-3.9 1.5-8.3 6-9.7q0.2-0.1 0.4-0.1c0.5-3.8 1.4-15.2-1.3-31.6l-16 23.3c2.5 3.6 1.9 8.6-1.5 11.2-3.5 2.6-8.6 1.8-11.4-1.8-2.8-3.7-2.2-8.8 1.3-11.5 2.1-1.6 4.9-2 7.4-1.1l18.8-27.3c-1.1-5.4-2.7-11.3-4.8-17.5-5.6-11.3-11-21.1-15.8-29.2 0.6 13.6 0 26.5-1.3 38.5 3 0.9 5.3 3.6 5.6 6.8 0.4 4.4-2.9 8.2-7.4 8.6q-0.2 0-0.4 0c-2.9 16.9-7.2 31.5-11.5 43.5-2.2 6-3.6 11.3-5.9 16.4 0.1 0.2 4.7 16.4 11.7 24.5 4.4-0.9 8.7 1.8 9.8 6.1 1 4.5-1.8 8.9-6.3 10-4.5 1-9-1.7-10.1-6.1-0.6-2.7 0.2-5.4 1.9-7.3-5-6.3-8.7-15.6-10.6-21.2-5.7 12.1-11.2 20.9-14.6 26 1 0.9 1.8 2 2.1 3.4 0.8 3.4-1.4 6.8-4.8 7.7-3.5 0.8-7-1.3-7.8-4.7-0.8-3.4 1.4-6.8 4.9-7.7q0 0 0.1 0c2.3-3.4 6.2-9.3 10.6-17.6-7.8 6.6-17.5 13.3-24.5 12.9-0.2 3.1-2.1 5.8-5 6.5-3.7 0.9-7.4-1.8-8.4-5.9-1-4.1 1.2-8.2 4.8-9 2.7-0.6 5.4 0.6 7 2.9l1.3 0.2c6.6 1.4 21.9-11.2 31.4-20.7 2.5-5.5 5.1-11.7 7.5-18.4 4.3-11.8 8.5-26.3 11.4-43-1.8-1.3-3.1-3.3-3.3-5.7-0.2-2.2 0.6-4.3 1.9-5.8l-15.2-25c-1.1 15.7-4.2 26.3-5.8 30.7 2.1 1.2 3.5 3.1 3.7 5.4 0.3 4.1-3.3 7.8-8 8.2-4.8 0.4-8.9-2.6-9.2-6.7-0.4-4.1 3.2-7.7 7.9-8.1q0.2 0 0.4 0c1.3-3.7 4.7-14.5 5.7-31.1l-20.7 19.1c1.7 4.2 0 8.9-3.9 10.6-3.5 1.6-7.6 0.4-9.9-2.7-4.4 11.3-9.4 21.5-14.4 30.5 1.8 2.3 2.2 5.7 0.8 8.7-1.6 3.7-5.4 5.7-9.1 5q-1.3 2.1-2.6 4c-3.5 5.3-6.2 10.1-9.6 14.5 0 0.2 0.6 17.1 5.4 26.6 4.5 0.2 8.1 3.9 8 8.3 0 4.6-3.8 8.2-8.4 8.1-4.7 0-8.4-3.7-8.3-8.3 0-2.7 1.4-5.2 3.6-6.6-3.4-7.3-4.7-17.2-5.2-23.1-8.6 10.4-16 17.6-20.5 21.7 0.8 1.1 1.2 2.4 1.2 3.8 0 3.5-2.9 6.3-6.5 6.3-3.6-0.1-6.4-2.9-6.4-6.4 0.1-3.5 3-6.3 6.6-6.3q0 0 0.1 0c3-2.7 8.2-7.5 14.5-14.5-9.1 4.5-20.2 8.6-26.9 6.6-0.9 3-3.5 5.2-6.4 5.1-3.8 0-6.8-3.5-6.7-7.7 0-4.3 3.1-7.7 6.8-7.6 2.7 0 5 1.8 6.1 4.4l1.2 0.6c6.1 2.9 23.9-5.6 35.4-12.5 3.8-4.8 7.8-10.2 11.8-16.1q1.2-1.7 2.3-3.5c-2-2.4-2.5-5.9-1.1-9.1 1-2.1 2.7-3.7 4.7-4.5l-0.2-31.3c-9.1 14.4-17.4 22.9-21 26.3 1.1 2.1 1.3 4.7 0.3 7-1.8 4-6.8 5.7-11.2 3.7-4.3-2-6.4-6.8-4.5-10.9 1.8-4 6.8-5.7 11.1-3.7q0.2 0.1 0.4 0.2c3-2.8 11.6-11.4 21.1-26.6l-28 7.8c-0.7 4.8-4.6 8.4-8.9 8.2-4.4-0.3-7.6-4.5-7.1-9.4 0.5-4.9 4.5-8.7 8.9-8.5 2.8 0.2 5.1 1.8 6.3 4.3l32.9-9.3c6.9-12.1 13.8-27.7 19.1-46.8-0.1-2.3 0.2-5.3 1.2-8.6q0.4-1.2 0.8-2.3-1.5-1.4-2.9-2.9-0.2 0.2-0.4 0.3c-27 35.1-58.1 56.6-81.5 69.1-5.7 3-10.3 6-15.4 8.3-0.1 0.1-7.5 15.3-7.7 26 3.9 2.3 5.3 7.2 3.2 11.1-2.2 4-7.2 5.4-11.3 3.2-4.1-2.3-5.6-7.3-3.4-11.3 1.3-2.4 3.7-3.9 6.3-4.1 0.5-8.1 3.9-17.4 6.2-22.8-12.4 5.1-22.3 8-28.3 9.5 0.2 1.3 0 2.7-0.6 3.9-1.7 3.1-5.6 4.2-8.7 2.5-3.2-1.7-4.3-5.6-2.7-8.7 1.7-3 5.6-4.1 8.7-2.4q0.1 0 0.1 0c4-0.9 10.9-2.8 19.7-5.9-10.2-0.4-21.9-1.9-26.8-6.8-2.3 2.2-5.5 2.9-8.1 1.4-3.3-1.8-4.3-6.2-2.3-10 2-3.7 6.3-5.2 9.6-3.4 2.3 1.2 3.5 3.8 3.3 6.5l0.8 1.3c4 5.5 23.7 6.3 37.1 5.6 5.6-2.4 11.7-5.3 18-8.7 20.8-11 47.8-29.4 72.3-58.5-12.3 5.9-24.2 10.4-35.3 13.8l-7.4 13.2q0.3 0.4 0.6 0.8c2.5 3.6 1.6 8.6-2.1 11.1-3.6 2.4-8.5 1.4-11-2.3-2.5-3.7-1.6-8.6 2-11.1 1.8-1.2 4-1.6 6-1.2l4.8-8.5c-7.5 2.1-14.4 3.6-20.8 4.8-6.3 1.2-11.6 2.7-17.2 3.3-0.1 0.1-11.7 12.3-15.2 22.4 3 3.4 2.9 8.5-0.3 11.6-3.3 3.1-8.5 2.9-11.7-0.4-3.2-3.4-3.2-8.6 0.1-11.8 2-1.9 4.7-2.5 7.3-2 2.9-7.5 9-15.4 12.8-19.9-13.3 1.2-23.7 0.9-29.8 0.5-0.2 1.4-0.8 2.6-1.9 3.6-2.5 2.4-6.5 2.3-9-0.3-2.5-2.6-2.4-6.6 0.1-9 2.5-2.4 6.6-2.3 9.1 0.3q0 0 0 0.1c4.1 0.3 11.2 0.6 20.6 0.2-9.6-3.4-20.3-8.4-23.5-14.6-2.8 1.4-6.1 1.1-8.2-1-2.6-2.8-2.2-7.3 0.9-10.3 3-2.9 7.6-3.1 10.2-0.3 1.9 1.9 2.2 4.8 1 7.4l0.5 1.3c2.2 6.4 20.7 13.1 33.7 16.5 6.1-0.6 12.7-1.5 19.8-2.8 7.5-1.4 16-3.4 25.1-6l5.9-10.6c-14.2 6.8-25 9.2-29.6 10 0 2.3-1 4.5-2.9 5.8-3.4 2.3-8.4 1-11-2.9-2.7-4-2.1-9.1 1.3-11.4 3.4-2.3 8.3-0.9 11 3q0.1 0.2 0.2 0.4c3.8-0.7 14.9-3 29.8-10.3l-26.8-8.7c-2.8 3.5-7.7 4.3-11.1 1.8-2.8-2-3.8-5.6-2.9-8.8-11.9 0.1-22.8-0.7-32.1-1.9-6.4-0.8-11.9-0.9-17.4-2-0.1 0.1-14.9 8.2-21.3 16.8 1.9 4.1 0.3 9-3.7 10.9-4.1 2-9.1 0.3-11.1-3.9-2-4.1-0.4-9.1 3.7-11.1 2.4-1.3 5.3-1.1 7.5 0.2 5-6.3 13.3-12 18.2-15.1-13-2.9-22.8-6.2-28.6-8.5-0.6 1.2-1.5 2.3-2.8 2.9-3.1 1.5-7 0.2-8.5-3-1.6-3.2-0.3-7.1 2.8-8.6 3.1-1.5 7-0.2 8.5 3q0 0.1 0.1 0.1c3.8 1.5 10.5 4 19.5 6.4-8.1-6.1-16.8-14.1-18-21-3.1 0.5-6.2-0.8-7.5-3.4-1.7-3.4 0.1-7.6 3.9-9.5 3.8-1.9 8.2-0.7 9.9 2.7 1.1 2.4 0.6 5.3-1.2 7.4v1.4c0.1 6.7 15.7 18.7 27.1 25.9 6 1.2 12.6 2.4 19.7 3.2 10.3 1.3 22.4 2.1 35.8 1.8 2.1-1 4.5-1.2 6.7-0.2 17.4-0.9 37-3.7 57.6-9.8-27.5-5-50.6-13.8-68.6-22.9-2.1 3-6 4.2-9.5 2.8-3.9-1.7-5.8-6.2-4.3-10.3-5.2-3-9.9-5.1-14.3-8.1-0.2 0-17 1.7-26.2 7.2 0.2 4.5-3.2 8.3-7.7 8.6-4.5 0.2-8.4-3.3-8.7-7.9-0.2-4.7 3.2-8.6 7.8-8.9 2.7-0.1 5.2 1.1 6.8 3.2 7.1-3.9 16.9-5.9 22.7-6.8-10.9-7.8-18.6-14.7-23.1-18.9-1 0.8-2.2 1.4-3.7 1.5-3.5 0.2-6.4-2.6-6.6-6.1-0.2-3.6 2.4-6.6 5.9-6.8 3.5-0.2 6.5 2.5 6.7 6.1q0 0 0 0.1c2.9 2.9 8.1 7.7 15.5 13.5-5.1-8.8-10-19.6-8.5-26.4-3-0.7-5.3-3.1-5.5-6.1-0.2-3.7 3.1-6.9 7.3-7.2 4.2-0.2 7.8 2.6 8 6.4 0.2 2.6-1.4 5-3.9 6.2l-0.6 1.4c-2.5 6.3 7.2 23.4 14.9 34.4 5 3.5 10.5 7 16.6 10.5 2.1-1.2 4.8-1.5 7.2-0.5 2 0.8 3.5 2.5 4.2 4.4l29.3-1.9c-13.4-8.2-21.4-16-24.5-19.4-2 1.3-4.4 1.6-6.6 0.7-3.7-1.6-5.3-6.4-3.4-10.8 1.8-4.4 6.4-6.7 10.2-5.1 3.7 1.6 5.3 6.5 3.4 10.9q0 0.1-0.1 0.3c2.6 2.9 10.6 10.9 24.8 19.5l-5.7-21.6c-15.8-16.2-27.3-32.5-35.5-46.1-3.3-5.5-6.5-10-9-14.9-0.2-0.1-15.7-6.8-26.4-6.5-2.1 4-6.9 5.7-10.9 3.8-4.1-2-5.8-7-3.8-11.2 2.1-4.1 7-5.9 11.1-3.9 2.5 1.2 4.1 3.5 4.5 6.1 8 0 17.5 3.1 23 5.1-5.7-12.1-9.1-21.9-10.9-27.8-1.3 0.3-2.7 0.1-4-0.5-3.1-1.5-4.4-5.3-2.8-8.6 1.5-3.2 5.3-4.5 8.5-3 3.1 1.5 4.4 5.4 2.9 8.6q-0.1 0-0.1 0.1c1.1 3.9 3.3 10.7 6.9 19.3-0.1-10.2 0.8-22 5.5-27.1-2.3-2.2-3.2-5.4-1.9-8.1 1.7-3.3 6.1-4.6 9.9-2.7 3.8 1.8 5.6 6.1 4 9.4-1.2 2.4-3.8 3.7-6.6 3.6l-1.1 0.9c-5.2 4.3-5.1 24-3.7 37.4 2.7 5.4 5.8 11.3 9.5 17.5 5.7 9.5 13.1 20.4 22.5 31.6 1.4-2.9 4.5-4.7 8-4.6 4.6 0.3 8.2 4 7.9 8.4-0.1 2.8-1.7 5.1-3.9 6.4l1.1 4.2c12.1 12.3 26.7 24.6 44.3 35.7 3-6.2 7.4-11.9 12.7-16.7-13-13.4-22.5-26.2-29.5-37.6l-34.8-19.4q-0.4 0.3-0.7 0.6c-3.6 2.7-8.8 1.7-11.6-2.1-2.8-3.8-2.1-9.1 1.5-11.7 3.6-2.6 8.7-1.7 11.5 2.2 1.4 1.9 2 4.2 1.7 6.3l27.3 15.1c-8-15-11.3-26.4-12.5-31.2-2.4 0-4.8-1.1-6.2-3.1-2.7-3.6-1.7-8.8 2.2-11.6 3.8-2.8 9.1-2.2 11.7 1.4 2.6 3.6 1.6 8.7-2.2 11.6q-0.2 0.1-0.4 0.2c1 4 4.2 15.7 12.8 31.5l2.8-11.5c-3.5-9.3-6.2-17.9-8.3-25.7-1.6-6.2-3.6-11.3-4.6-16.8-0.1-0.1-13.2-10.8-23.6-13.4-3.1 3.2-8.2 3.5-11.5 0.5-3.4-3-3.6-8.2-0.5-11.7 3.1-3.4 8.3-3.8 11.7-0.8 2 1.9 2.9 4.6 2.6 7.1 7.7 2.3 16.1 7.8 20.8 11.3-2.2-13.2-2.7-23.6-2.9-29.7-1.3-0.1-2.6-0.6-3.6-1.6-2.6-2.3-2.8-6.3-0.4-9 2.3-2.7 6.4-2.9 9-0.6 2.6 2.3 2.7 6.4 0.4 9q-0.1 0.1-0.1 0.1c0 4.1 0.2 11.2 1.3 20.5 2.7-9.8 6.8-20.9 12.8-24.5-1.7-2.7-1.6-6.1 0.4-8.3 2.5-2.8 7.1-2.7 10.2 0.1 3.2 2.8 3.7 7.4 1.2 10.2-1.7 1.9-4.4 2.4-6.9 1.7l-1.7 0.4c-6.2 2.7-11.5 21.7-13.8 34.9 1.1 6 2.5 12.6 4.3 19.5 1.5 5.5 3.3 11.4 5.5 17.6l1.8-7.6c-3.8-2.9-5-8.1-2.7-11.8 2.4-3.7 7.6-4.4 11.7-1.6 4 2.9 5.3 8.2 2.9 12-1.4 2.3-4 3.5-6.7 3.3l-3.6 14.9c6.5 16.4 15.7 34.7 28.8 53.1 6.8-4.4 14.5-7.7 22.9-9.5-17.8-40.9-21.5-78.8-21-105.4 0.1-6.5-0.3-11.9 0.2-17.5-0.1-0.1-9.8-14-19-19.4-3.9 2.3-8.9 1.2-11.3-2.6-2.4-3.8-1.2-8.9 2.8-11.4 3.9-2.5 9-1.4 11.4 2.5 1.5 2.3 1.6 5.1 0.6 7.5 6.8 4.3 13.3 11.9 16.9 16.5 1.6-13.3 3.8-23.3 5.4-29.3-1.2-0.5-2.3-1.3-3.1-2.5-1.9-3-0.9-6.9 2.1-8.8 3-1.9 7-1.1 8.8 1.9 1.9 3 1 6.9-2.1 8.8q0 0-0.1 0.1c-1.1 3.9-2.8 10.8-4.3 20.1 5.2-8.8 12.3-18.3 19-20.2-0.8-3 0.1-6.2 2.6-7.8 3.2-2 7.6-0.7 9.9 2.9 2.2 3.6 1.5 8.1-1.7 10.1-2.2 1.4-5.1 1.2-7.4-0.4l-1.4 0.1q-1.3 0.2-2.7 1c3.9-0.3 7.6 2.1 8.7 5.9 0.8 2.6 0.2 5.3-1.5 7.4 5.4 6 9.6 15 11.8 20.5 5.1-12.4 10.1-21.5 13.2-26.8-1.1-0.8-1.9-1.9-2.3-3.3-1-3.3 1-6.9 4.4-7.9 3.4-1 7 0.9 8 4.3 1 3.3-1 6.8-4.4 7.9q-0.1 0-0.1 0c-2.2 3.5-5.7 9.7-9.7 18.2 7.4-7 16.8-14.3 23.8-14.3 0-3.1 1.8-5.9 4.7-6.8 3.5-1 7.4 1.4 8.6 5.5 1.2 4-0.7 8.2-4.3 9.2-2.6 0.8-5.2-0.2-7-2.3l-1.4-0.3c-6.7-1-21.2 12.4-30.2 22.4-2.2 5.7-4.4 12-6.5 18.9-1.9 6.3-3.7 13.4-5.3 21.2l6.1 12.7c2.6-15.6 6.8-25.8 8.8-30-1.9-1.4-3.1-3.5-3.1-5.8 0.1-4.1 4-7.4 8.7-7.3 4.8 0.1 8.6 3.5 8.6 7.6-0.1 4-4 7.3-8.8 7.2q-0.2 0-0.4 0c-1.7 3.5-6.1 14-8.8 30.3l22.6-16.9c-1.3-4.3 0.9-8.8 4.9-10.2 4.2-1.4 8.8 1 10.3 5.3 1.5 4.4-0.7 9.1-4.9 10.5-2.5 0.9-5.3 0.3-7.3-1.3l-26.6 20c-1.4 12.8-1.6 28.5 1.2 46.7 0.7 1.2 1.3 2.8 1.8 4.7 5.4 1 10.6 2.6 15.5 4.6 7.3-40.7 23.4-72.4 37.2-93.5 3.5-5.4 6.1-10.2 9.5-14.7 0-0.1-0.8-17-5.7-26.5-4.5-0.1-8.2-3.7-8.2-8.2 0-4.5 3.8-8.2 8.4-8.2 4.7 0 8.4 3.7 8.4 8.2 0 2.8-1.4 5.2-3.5 6.7 3.4 7.3 4.9 17.2 5.5 23 8.4-10.4 15.7-17.8 20.2-21.9-0.8-1.1-1.3-2.4-1.3-3.8 0-3.5 2.9-6.4 6.4-6.4 3.6 0 6.5 2.9 6.5 6.4 0 3.4-2.9 6.3-6.5 6.3q0 0-0.1 0c-3 2.7-8.2 7.7-14.4 14.7 9.1-4.6 20.2-8.9 26.9-6.9 0.9-3.1 3.4-5.2 6.4-5.2 3.7 0 6.7 3.4 6.7 7.6 0 4.3-3 7.7-6.7 7.7-2.7 0-5-1.8-6.1-4.3l-1.3-0.6c-6.1-2.9-23.8 5.8-35.2 12.9-3.8 4.9-7.7 10.3-11.6 16.3-13.7 20.8-29.6 52.2-36.6 92.7q3.9 2.1 7.5 4.6c1.5-2.2 3.1-4 4.6-5 9.5-15.8 19.6-27.9 28.8-37.1l9-36.3q-0.4-0.2-0.8-0.5c-3.4-2.9-3.8-7.9-1-11.3 2.8-3.3 7.9-3.7 11.3-0.8 3.4 2.9 3.8 8 1 11.3-1.4 1.7-3.4 2.6-5.5 2.7l-7 28.5c11.9-10.3 21.7-15.6 25.9-17.6-0.6-2.3-0.2-4.6 1.3-6.4 2.6-3.1 7.7-3.2 11.4-0.1 3.6 3.1 4.4 8.1 1.7 11.3-2.6 3.1-7.7 3.1-11.3 0q-0.2-0.1-0.3-0.3c-3.5 1.7-13.6 6.9-26.1 17.9l21.4 1c12.8-9.1 25-16.1 35.6-21.3 5.7-2.8 10.4-5.6 15.6-7.7 0.1-0.2 8-15.1 8.6-25.8-3.8-2.4-5.1-7.3-2.8-11.2 2.3-3.9 7.4-5.1 11.4-2.7 4 2.3 5.4 7.4 3 11.3-1.4 2.4-3.8 3.8-6.4 3.9-0.8 8-4.6 17.3-7 22.6 12.5-4.7 22.5-7.2 28.6-8.5-0.2-1.3 0.1-2.7 0.8-3.9 1.8-3 5.7-4 8.8-2.2 3 1.8 4.1 5.7 2.3 8.7-1.8 3-5.7 4-8.8 2.2q0 0-0.1-0.1c-4 0.8-10.9 2.4-19.9 5.3 10.2 0.7 21.9 2.7 26.6 7.8 2.3-2.2 5.6-2.8 8.2-1.2 3.2 1.9 4.1 6.4 1.9 10zm-313.3 51.2l4.8 18c9.3 5 20.8 9.9 34.4 13.9q0.2-0.6 0.4-1.2c-15.2-9.5-28.3-20-39.6-30.7zm36.7 46q0.1-4.6 1.1-9c-13.9-4-25.5-9-35-14l-32.3 2c17.7 8.5 40 16.6 66.2 21zm-25.2 32.3c8.2-4.5 17.4-10.4 26.9-18.2q-0.7-2.6-1.1-5.3c-20.6 6.3-40.1 9.5-57.7 10.7q0.4 1.2 0.3 2.6zm35.9-0.4c-3-3.9-5.4-8.1-7.2-12.5-9 7.3-17.7 12.9-25.5 17.3l-7.1 12.6c12.4-4.1 25.7-9.6 39.4-17q0.2-0.2 0.4-0.4zm52.5-150c-3.1 18.4-4.6 40-2.4 63.8q2-0.1 4-0.1 2.8 0 5.5 0.2c0.1-1.3 0.3-2.5 0.6-3.5-2.8-18.3-2.7-34.1-1.3-47zm-42.6 76.5c-11.1-15.8-19.4-31.5-25.7-46l-2.3 9.7c6.6 11 15.7 23.4 28 36.3zm9.5 89.9q-3.3-1.8-6.3-3.9c-1 3.1-2.4 5.7-3.7 7.4-5.3 19.2-12.2 34.7-19.1 47l0.3 38.7c12.4-22.5 24.3-52.5 28.8-89.2zm23.2 7.8c-6.5-1-12.6-2.8-18.2-5.3-2.2 17.2-6 32.9-10.8 47.1 2-0.3 4 0.1 5.7 1.1l24.3-22.5c0.1-6.2-0.2-13-1-20.4zm2.3-109.9c-2.5-27.5-0.3-52.1 3.8-72.3l-5.9-12.3q-0.5 0-1 0c-4.4 0-8-3.6-7.9-8 0.1-4.4 3.7-7.9 8.2-7.8 4.5 0.1 8 3.7 7.9 8.1 0 2.2-1 4.1-2.5 5.5l3 6.1c1.2-5.5 2.6-10.6 4-15.2 1.9-6.2 3-11.6 5-16.8-0.1-0.2-5.6-16.1-13-23.8-4.4 1.1-8.9-1.3-10.2-5.6q-0.4-1.4-0.3-2.8c-4.6 6.1-9.3 14.3-12.5 21-0.7 6.1-1.1 12.7-1.2 19.9-0.5 26.3 3.2 63.8 21.1 104.2q0.8-0.1 1.5-0.2zm23 113.9q-1.4-2.1-2.6-3.9-5.5 0.8-11.2 0.8-3.1 0-6.1-0.3c0.7 7 1 13.4 1 19.3l18.4 30.2c1.5-14.2 1.8-29.6 0.5-46.1zm57.6 63.1c-4.2-2-6-6.9-4-10.8 0.9-1.8 2.4-3.1 4.1-3.8-9.7-18.3-23.4-38.4-42.4-57.5q-3.4 1.4-7 2.6c10.7 16.4 25.3 42.3 39.4 77.5l9.9 10.2q0.4-0.2 0.9-0.3c4.2-1.4 8.7 0.9 10 5.1 1.4 4.2-1 8.6-5.3 10-2.2 0.7-4.6 0.4-6.5-0.7q6.4 18.3 11.5 37.3c5.2-5 8.3-22.7 9.3-35.1-1.6-5.9-3.7-12.3-6.2-19-1.8-4.8-3.9-10-6.3-15.4-2.2 1-5 1.1-7.4-0.1zm-3.9 21.8l-1.2-1.3q0.4 1.1 0.8 2.2 0.2-0.5 0.4-0.9zm-23.2-102q-0.5-0.1-1-0.3-4.3 3.3-9.2 6c17.6 17.9 30.6 36.6 40.2 53.9l3.8-27.4c-8-10-19-21.3-33.8-32.2zm54.4-122.6l-20-0.8c-9.3 8.9-19.4 21-28.8 36.8-0.3 1.9-1.3 4.3-2.7 6.8q2.3 2.1 4.4 4.4c15-19.7 31.3-35.1 47.1-47.2z"/>
		</g>
		<g id="Layer">
		</g>
	</g>
</svg>