<?xml version="1.0" encoding="iso-8859-1"?>
<!-- Generator: Adobe Illustrator 16.0.0, SVG Export Plug-In . SVG Version: 6.00 Build 0)  -->
<!DOCTYPE svg PUBLIC "-//W3C//DTD SVG 1.1//EN" "http://www.w3.org/Graphics/SVG/1.1/DTD/svg11.dtd">
<svg version="1.1" xmlns="http://www.w3.org/2000/svg" xmlns:xlink="http://www.w3.org/1999/xlink" x="0px" y="0px" width="512px"
	 height="512px" viewBox="0 0 512 512" style="enable-background:new 0 0 512 512;" xml:space="preserve">
<g id="C_-_173_x2C__appriciate_x2C__remarks_x2C__good_x2C__like">
	<g>
		<g>
			<g id="XMLID_1119_">
				<g>
					<g>
						<path style="fill:#9BC9FF;" d="M130.188,247.06v205.59v17.88h-89.81V229.18h89.81V247.06z M103.239,417.02
							c0-9.8-7.92-17.76-17.69-17.76c-9.78,0-17.7,7.96-17.7,17.76c0,9.811,7.92,17.761,17.7,17.761
							C95.318,434.78,103.239,426.83,103.239,417.02z"/>
					</g>
					<g>
						<polygon style="fill:#FFFFFF;" points="193.048,247.06 193.048,256.04 193.048,443.71 193.048,452.65 130.188,452.65 
							130.188,247.06 						"/>
					</g>
					<g>
						<path style="fill:#9BC9FF;" d="M444.518,264.94c30.871,0,40.311,62.569,0,62.569c26.941,0,42.791,63.811-17.969,62.57
							c35.93,0,26.939,53.63-8.98,53.63h-224.52V256.04c28.47-10.79,47.34-53.98,62.87-80.49c11.89-20.3,16.13-29.6,26.941-44.69
							c24.83-34.64,15.709-85.35,36.119-89.08c13.33-2.45,22.02,10.27,26.75,17.57c14.41,22.29,10.59,55.59,3.141,80.57
							c-3.891,13.06-8.33,31.73-12.131,44.57c-6.93,23.44,8.641,17.88,26.951,17.88c16.359,0,46.51,0,62.859,0
							C489.418,202.37,477.779,264.94,444.518,264.94z"/>
					</g>
					<g>
						<path style="fill:#4D80C9;" d="M85.548,399.26c9.77,0,17.69,7.96,17.69,17.76c0,9.811-7.92,17.761-17.69,17.761
							c-9.78,0-17.7-7.95-17.7-17.761C67.849,407.22,75.769,399.26,85.548,399.26z"/>
					</g>
				</g>
				<g>
					<g>
						<path style="fill:#4D80C9;" d="M417.568,448.71h-224.52c-2.761,0-5-2.238-5-5s2.239-5,5-5h224.52
							c16.586,0,26.852-13.882,26.852-26.743c0-3.885-1.24-16.389-16.924-16.872c-0.348-0.003-0.695-0.009-1.051-0.016
							c-2.74-0.056-4.924-2.309-4.896-5.05s2.258-4.949,5-4.949c0.377,0,0.75,0.005,1.119,0.016
							c15.857,0.117,27.045-4.53,32.385-13.493c5.461-9.171,3.545-20.951-0.779-28.559c-3.748-6.596-9.264-10.534-14.756-10.534
							c-2.762,0-5-2.238-5-5s2.238-5,5-5c20.236,0,21.811-17.771,21.811-23.217c0-14.176-8.764-29.353-21.811-29.353
							c-2.762,0-5-2.238-5-5s2.238-5,5-5c13.652,0,22.104-12.835,22.104-24.727c0-13.46-10.527-27.844-40.072-27.844h-62.859
							c-2.984,0-5.916,0.156-8.752,0.306c-9.432,0.501-17.58,0.933-22.166-4.876c-4.342-5.503-2.553-13.894-0.828-19.727
							c1.844-6.231,3.895-14.059,5.879-21.629c2.09-7.977,4.252-16.225,6.254-22.951c4.449-14.916,13.105-52.217-2.547-76.428
							c-5.814-8.976-12.459-17.052-21.646-15.367c-7.055,1.29-9.627,14.619-12.604,30.053c-3.367,17.45-7.557,39.166-20.357,57.023
							c-7.363,10.278-11.623,17.832-17.52,28.287c-2.594,4.596-5.531,9.806-9.17,16.017c-2.678,4.573-5.464,9.661-8.414,15.047
							c-14.158,25.856-31.779,58.034-56.998,67.592c-2.583,0.976-5.469-0.322-6.447-2.903c-0.979-2.583,0.321-5.469,2.903-6.448
							c21.766-8.25,38.403-38.631,51.771-63.044c2.985-5.452,5.805-10.601,8.557-15.298c3.597-6.141,6.513-11.313,9.087-15.876
							c6.053-10.728,10.424-18.479,18.104-29.198c11.523-16.078,15.318-35.743,18.664-53.092
							c3.674-19.037,6.846-35.477,20.621-37.995c17.02-3.131,27.406,12.919,31.846,19.77c17.912,27.708,8.578,68.476,3.734,84.718
							c-1.955,6.565-4.096,14.732-6.164,22.629c-2.004,7.645-4.074,15.55-5.963,21.931c-2.426,8.204-1.184,10.348-0.912,10.695
							c1.379,1.745,8.26,1.38,13.787,1.086c2.965-0.157,6.031-0.32,9.281-0.32h62.859c16.258,0,29.033,3.895,37.975,11.575
							c7.801,6.703,12.098,16.032,12.098,26.269c0,11.514-5.834,23.657-15.955,30.09c9.938,7.316,15.662,21.007,15.662,33.989
							c0,13.857-5.891,24.349-15.838,29.561c2.846,2.459,5.391,5.575,7.479,9.25c7.021,12.356,7.287,27.515,0.676,38.616
							c-3.508,5.887-9.947,12.492-21.725,15.957c5.098,5.128,7.5,12.226,7.5,19.29C454.42,429.638,440.33,448.71,417.568,448.71z"/>
					</g>
					<g>
						<path style="fill:#4D80C9;" d="M193.048,457.65h-62.86c-2.761,0-5-2.238-5-5s2.239-5,5-5h57.86V252.06h-57.86
							c-2.761,0-5-2.239-5-5s2.239-5,5-5h62.86c2.761,0,5,2.239,5,5v205.59C198.048,455.412,195.81,457.65,193.048,457.65z"/>
					</g>
					<g>
						<path style="fill:#4D80C9;" d="M130.188,475.53h-89.81c-2.761,0-5-2.238-5-5V229.18c0-2.761,2.239-5,5-5h89.81
							c2.761,0,5,2.239,5,5v241.35C135.188,473.292,132.95,475.53,130.188,475.53z M45.378,465.53h79.81V234.18h-79.81V465.53z"/>
					</g>
				</g>
			</g>
		</g>
	</g>
</g>
<g id="Layer_1">
</g>
</svg>
