<?xml version="1.0" encoding="utf-8"?>
<!-- Svg Vector Icons : http://www.onlinewebfonts.com/icon -->
<!DOCTYPE svg PUBLIC "-//W3C//DTD SVG 1.1//EN" "http://www.w3.org/Graphics/SVG/1.1/DTD/svg11.dtd">
<svg version="1.1" xmlns="http://www.w3.org/2000/svg" xmlns:xlink="http://www.w3.org/1999/xlink" x="0px" y="0px" viewBox="0 0 1000 1000" enable-background="new 0 0 1000 1000" xml:space="preserve">
<metadata> Svg Vector Icons : http://www.onlinewebfonts.com/icon </metadata>
<g><path style="fill: #992916 " d="M983.4,157.9h-30.9c-9.3,0-10.2,3.4-10.2,9.8c0,23.9-0.1,91.8-0.1,175.4c0,146.5,0,341.2,0,432.5c0,19-16.6,19.3-24.7,19.2c-336.6-5.4-418.1,101.4-418.1,101.4S417.7,789.3,81.2,794.7c-8.2,0.1-24.7-0.1-24.7-19.2c0-143.4,0.3-542,0.2-607.8c0-6.4-0.9-9.8-10.1-9.8H19.3c-7,0-9.3,2.5-9.3,10.5v664.5c0,7.9,3.8,12.1,10.9,11.7c60.4-3.2,337.9-4.4,426.8,91h103.2c115.3-106.7,367.8-94.2,428.1-91c7.1,0.4,10.9-3.8,10.9-11.7V168.3C990,160.4,990.4,157.9,983.4,157.9L983.4,157.9z M137.1,748.1c31,0,170.6-2.5,362.2,102.3c191.6-104.8,331.2-102.3,362.2-102.3c31,0,33.8-19.3,33.8-19.3s0-614.3,0-641.9s-14.1-22-14.1-22c-284.5,5.5-381.9,141.5-381.9,141.5S401.9,70.5,117.4,65c0,0-14.1-5.5-14.1,22c0,27.6,0,641.9,0,641.9S106.2,748.1,137.1,748.1L137.1,748.1z M476,249.8h47.3v546.9H476V249.8L476,249.8z"/></g>
</svg>