<?xml version="1.0" encoding="utf-8"?>
<!-- Svg Vector Icons : http://www.onlinewebfonts.com/icon -->
<!DOCTYPE svg PUBLIC "-//W3C//DTD SVG 1.1//EN" "http://www.w3.org/Graphics/SVG/1.1/DTD/svg11.dtd">
<svg version="1.1" xmlns="http://www.w3.org/2000/svg" xmlns:xlink="http://www.w3.org/1999/xlink" x="0px" y="0px" viewBox="0 0 1000 1000" enable-background="new 0 0 1000 1000" xml:space="preserve">
<metadata> Svg Vector Icons : http://www.onlinewebfonts.com/icon </metadata>
<g><path d="M847.1,806.3h77.6c36.1,0,65.3-28.5,65.3-63.6V106.3c0-35.2-29.2-63.6-65.3-63.6H75.3C39.2,42.7,10,71.2,10,106.3v636.4c0,35.1,29.2,63.6,65.3,63.6h507.7l208.6,151L847.1,806.3z"/><path d="M712.8,419.7c0,27.1,21.9,49,49,49c27.1,0,49-21.9,49-49c0-27.1-21.9-49-49-49C734.8,370.7,712.8,392.7,712.8,419.7z"/><path d="M451,419.7c0,27.1,21.9,49,49,49s49-21.9,49-49c0-27.1-21.9-49-49-49S451,392.7,451,419.7z"/><path d="M189.5,419.7c0,27.1,21.9,49,49,49c27.1,0,49-21.9,49-49l0,0c0-27.1-21.9-49-49-49C211.4,370.7,189.5,392.7,189.5,419.7z"/></g>
</svg>